<svg xmlns="http://www.w3.org/2000/svg" xmlns:xlink="http://www.w3.org/1999/xlink" version="1.1" x="0px" y="0px" viewBox="0 0 100 125" enable-background="new 0 0 100 100" xml:space="preserve"><g><path fill="none" d="M51.522,51.294C47.432,46.9,42.018,44.26,36,44.26c-12.639,0-22.626,11.628-23.248,26.74h26.433   C39.701,62.548,44.544,55.251,51.522,51.294z"/><path fill="none" d="M53.466,53.648C47.148,57.024,42.736,63.482,42.21,71h17.038C58.972,64.29,56.847,58.271,53.466,53.648z"/><path fill="none" d="M36,36.633c6.929,0,12.566-5.638,12.566-12.566S42.929,11.5,36,11.5s-12.566,5.638-12.566,12.566   S29.071,36.633,36,36.633z"/><path fill="none" d="M62,74H42.21c0.775,11.081,10.015,19.866,21.29,19.866c11.781,0,21.366-9.585,21.366-21.366   S75.281,51.134,63.5,51.134c-2.587,0-5.057,0.485-7.354,1.331C59.828,57.853,62,64.811,62,72.5V74z"/><path d="M36,39.633c8.583,0,15.566-6.983,15.566-15.566S44.583,8.5,36,8.5s-15.566,6.983-15.566,15.566S27.417,39.633,36,39.633z    M36,11.5c6.929,0,12.566,5.638,12.566,12.566S42.929,36.633,36,36.633s-12.566-5.638-12.566-12.566S29.071,11.5,36,11.5z"/><path d="M63.5,48.134c-3.281,0-6.41,0.655-9.271,1.837C49.594,44.556,43.216,41.26,36,41.26c-14.736,0-26,13.723-26,31.24V74   h29.185C39.963,86.739,50.568,96.866,63.5,96.866c13.436,0,24.366-10.931,24.366-24.366S76.936,48.134,63.5,48.134z M36,44.26   c6.018,0,11.432,2.641,15.522,7.034C44.544,55.251,39.701,62.548,39.185,71H12.752C13.374,55.888,23.361,44.26,36,44.26z    M63.5,93.866c-11.275,0-20.515-8.785-21.29-19.866c-0.035-0.498-0.076-0.994-0.076-1.5s0.041-1.002,0.076-1.5   c0.526-7.518,4.938-13.976,11.256-17.352c0.858-0.459,1.758-0.844,2.681-1.184c2.297-0.846,4.767-1.331,7.354-1.331   c11.781,0,21.366,9.585,21.366,21.366S75.281,93.866,63.5,93.866z"/></g><g><path stroke="#000000" stroke-miterlimit="10" d="M63.971,71.82h12.574v1.385H63.971v13.151h-1.438V73.205H50.455V71.82h12.077   V58.645h1.438V71.82z"/></g></svg>