<svg xmlns="http://www.w3.org/2000/svg" data-name="Layer 1" viewBox="0 0 100 100" x="0px" y="0px"><title>QR_UI</title><path d="M83.3,23H45.1a11.3,11.3,0,0,0-10.8-8.2A11.2,11.2,0,0,0,23.6,23H17a3,3,0,0,0,0,6h6.6a11.2,11.2,0,0,0,10.7,8.2A11.3,11.3,0,0,0,45.1,29H83.3a3,3,0,0,0,0-6Zm-49,8.2A5.2,5.2,0,1,1,39.5,26,5.2,5.2,0,0,1,34.3,31.2Z"/><path d="M83.3,47H76.4a11.2,11.2,0,0,0-10.7-8.2A11.3,11.3,0,0,0,54.9,47H17a3,3,0,0,0,0,6H54.9a11.3,11.3,0,0,0,10.8,8.2A11.2,11.2,0,0,0,76.4,53h6.9a3,3,0,1,0,0-6ZM65.7,55.2A5.2,5.2,0,1,1,70.8,50,5.2,5.2,0,0,1,65.7,55.2Z"/><path d="M83.3,71H53.2a11.2,11.2,0,0,0-21.4,0H17a3,3,0,0,0,0,6H31.7a11.1,11.1,0,0,0,21.6,0h30a3,3,0,1,0,0-6ZM42.5,79.5a5.2,5.2,0,1,1,5.2-5.2A5.2,5.2,0,0,1,42.5,79.5Z"/></svg>